# xmcd CD database file
#
# Track frame offsets:
#	150
#	36750
#	75975
#	99750
#	138300
#	162825
#	182100
#	201525
#
# Disc length: 3006 seconds
#
# Revision: 0
# Processed by: cddbd v1.5.2PL0 Copyright (c) Steve Scherf et al.
# Submitted via: CDex 1.51
#
DISCID=5e0bbc08
DTITLE=Hiroshi Takashima and Takahiro Toyoda - Beautiful Friendship
DYEAR=2012
DGENRE=Jazz
TTITLE0=Autumn Leaves
TTITLE1=Blues For Kids
TTITLE2=Beautiful Love
TTITLE3=Bud Powell
TTITLE4=Y.N.M
TTITLE5=I Remember You
TTITLE6=That's All
TTITLE7=A Beautiful Friendship
EXTD=YEAR: 2012
EXTT0=
EXTT1=
EXTT2=
EXTT3=
EXTT4=
EXTT5=
EXTT6=
EXTT7=
PLAYORDER=
